<svg width="400" height="400" viewBox="0 0 400 400" fill="none" xmlns="http://www.w3.org/2000/svg">
<path d="M318.87 187.24C320.68 189.05 321.8 191.55 321.8 194.31V344.48C321.8 350 317.32 354.48 311.8 354.48H88.2C82.68 354.48 78.2 350 78.2 344.48V194.31C78.2 191.71 79.37 189.17 81 187.4" stroke="#156F56" stroke-width="20" stroke-miterlimit="10" stroke-linecap="round" stroke-linejoin="round"/>
<path d="M318.49 186.9L208.62 272.68C203.56 276.63 196.45 276.63 191.39 272.68L81.51 186.9" stroke="#156F56" stroke-width="20" stroke-miterlimit="10" stroke-linecap="round" stroke-linejoin="round"/>
<path d="M144.89 137.41L81.51 186.9" stroke="#156F56" stroke-width="20" stroke-miterlimit="10" stroke-linecap="round" stroke-linejoin="round"/>
<path d="M318.49 186.9L255.11 137.41" stroke="#156F56" stroke-width="20" stroke-miterlimit="10" stroke-linecap="round" stroke-linejoin="round"/>
<path d="M287.41 89.85C287.41 65.36 267.56 45.52 243.08 45.52C222.2 45.52 204.7 59.96 200 79.41C195.3 59.97 177.8 45.52 156.92 45.52C132.43 45.52 112.59 65.37 112.59 89.85C112.59 101.49 117.08 112.08 124.43 119.99L200 184.31L275.58 119.99C282.92 112.08 287.41 101.49 287.41 89.85Z" stroke="#156F56" stroke-width="20" stroke-miterlimit="10" stroke-linecap="round" stroke-linejoin="round"/>
</svg>
